<svg xmlns="http://www.w3.org/2000/svg" viewBox="0 0 24 24">
  <defs>
    <linearGradient id="dockerGrad" x1="0%" y1="0%" x2="100%" y2="100%">
      <stop offset="0%" style="stop-color:rgba(16, 185, 129, 0.4)"/>
      <stop offset="100%" style="stop-color:rgba(16, 185, 129, 0.2)"/>
    </linearGradient>
  </defs>
  <g fill="none" stroke="url(#dockerGrad)" stroke-width="1.2">
    <path d="M4 14h2v2H4z"/>
    <path d="M7 14h2v2H7z"/>
    <path d="M10 14h2v2h-2z"/>
    <path d="M13 14h2v2h-2z"/>
    <path d="M16 14h2v2h-2z"/>
    <path d="M4 11h2v2H4z"/>
    <path d="M7 11h2v2H7z"/>
    <path d="M10 11h2v2h-2z"/>
    <path d="M13 11h2v2h-2z"/>
    <path d="M3 18c5 0 8.5-1.5 11-4.5s4.5-6.5 7-6.5"/>
  </g>
</svg> 