<svg xmlns="http://www.w3.org/2000/svg" viewBox="0 0 24 24">
  <path fill="#34D399" d="M12.19 2.38a9.344 9.344 0 0 0-9.234 6.893c.053-.02-.055.013 0 0-3.875 2.551-3.922 8.11-.247 10.941l.006-.007-.007.03a6.717 6.717 0 0 0 4.077 1.356h5.173l.03.03h5.192c6.687.053 9.376-8.605 3.835-12.35a9.365 9.365 0 0 0-2.821-4.552l-.043.043.006-.05A9.344 9.344 0 0 0 12.19 2.38zm-.358 4.146c1.244-.04 2.518.368 3.486 1.15a5.186 5.186 0 0 1 1.862 4.078v.518c3.53-.07 3.53 5.262 0 5.193h-9.05l-.007.006c-1.862.102-2.768-1.663-1.374-2.468 0 0 .24-.176.502-.336 1.025-.64 2.727-1.656 2.727-1.656s-.009.002.097-.025c1.749-.433 3.677-1.474 3.677-3.683 0-.71-.266-1.29-.68-1.74a2.815 2.815 0 0 0-1.104-.73c-.007 0-.02-.033-.02-.033"/>
</svg> 