<svg xmlns="http://www.w3.org/2000/svg" viewBox="0 0 24 24">
  <path fill="#34D399" d="M14.9 12.1h4.7v1.2h-4.7v-1.2zm4.7-2.3h-4.7V11h4.7V9.8zm0 4.7h-4.7v1.2h4.7v-1.2zm-7-7h4.7V6.3h-4.7v1.2zm0 2.3h4.7V9.8h-4.7v1.2zm0 2.3h4.7V11h-4.7v1.2zm0 2.3h4.7v-1.2h-4.7v1.2zm0 2.3h4.7v-1.2h-4.7v1.2zm0 2.3h4.7v-1.2h-4.7v1.2zM6.3 15.7h4.7v-1.2H6.3v1.2zm0-2.3h4.7v-1.2H6.3v1.2zm0-2.3h4.7V9.8H6.3V11zm0-2.3h4.7V7.5H6.3v1.2zm0-2.3h4.7V5.2H6.3v1.2zm0 11.6h4.7v-1.2H6.3v1.2zm7-14h4.7V3.9h-4.7v1.2z"/>
  <path fill="#34D399" d="M12 0C5.4 0 0 5.4 0 12s5.4 12 12 12 12-5.4 12-12S18.6 0 12 0zm0 22.5C6.2 22.5 1.5 17.8 1.5 12S6.2 1.5 12 1.5 22.5 6.2 22.5 12 17.8 22.5 12 22.5z"/>
  <path fill="#34D399" d="M12 2.6c-5.2 0-9.4 4.2-9.4 9.4s4.2 9.4 9.4 9.4 9.4-4.2 9.4-9.4-4.2-9.4-9.4-9.4zm0 17.3c-4.4 0-7.9-3.5-7.9-7.9s3.5-7.9 7.9-7.9 7.9 3.5 7.9 7.9-3.5 7.9-7.9 7.9z"/>
</svg> 